<svg width="1200" height="627" viewBox="0 0 1200 627" xmlns="http://www.w3.org/2000/svg"><defs><clipPath id="satori_bc-id-0"><rect x="0" y="0" width="1200" height="627"></rect></clipPath></defs><rect x="0" y="0" width="1200" height="627" fill="#f9fafb"></rect><path width="1200" height="627" clip-path="url(#satori_bc-id-0)" fill="none" stroke="#3b82f6" stroke-width="24" d="M0,0 A0,0 0 0 1 0,0 h1200 a0,0 0 0 1 0,0 v627 a0,0 0 0 1 0,0 h-1200 a0,0 0 0 1 0,0 v-627 A0,0 0 0 1 0,0"></path><path fill="black" d="M143.8 150.7L143.8 153.3Q143.8 161.7 140.8 168.0Q137.9 174.3 132.3 177.8Q126.8 181.2 119.7 181.2L119.7 181.2Q112.6 181.2 107.0 177.8Q101.5 174.4 98.4 168.1Q95.4 161.8 95.4 153.6L95.4 153.6L95.4 150.8Q95.4 142.4 98.4 136.0Q101.4 129.6 106.9 126.2Q112.5 122.8 119.6 122.8Q126.7 122.8 132.2 126.2Q137.7 129.6 140.8 136.0Q143.8 142.4 143.8 150.7L143.8 150.7ZM131.9 153.5L131.9 150.7Q131.9 141.7 128.7 137.1Q125.5 132.4 119.6 132.4L119.6 132.4Q113.7 132.4 110.5 137.0Q107.3 141.6 107.2 150.5L107.2 150.5L107.2 153.3Q107.2 162.0 110.4 166.8Q113.6 171.6 119.7 171.6L119.7 171.6Q125.6 171.6 128.7 167.0Q131.9 162.3 131.9 153.5L131.9 153.5ZM197.3 150.5L197.3 173.2Q194.1 177.0 188.4 179.1Q182.6 181.2 175.6 181.2L175.6 181.2Q168.2 181.2 162.6 178.0Q157.0 174.8 154.0 168.6Q151.0 162.5 150.9 154.2L150.9 154.2L150.9 150.3Q150.9 141.8 153.8 135.6Q156.6 129.4 162.1 126.1Q167.5 122.8 174.7 122.8L174.7 122.8Q184.9 122.8 190.6 127.6Q196.3 132.4 197.3 141.6L197.3 141.6L185.9 141.6Q185.1 136.7 182.4 134.5Q179.8 132.2 175.1 132.2L175.1 132.2Q169.1 132.2 166.0 136.7Q162.9 141.2 162.8 150.1L162.8 150.1L162.8 153.7Q162.8 162.6 166.2 167.2Q169.6 171.8 176.2 171.8L176.2 171.8Q182.8 171.8 185.6 169.0L185.6 169.0L185.6 159.2L174.9 159.2L174.9 150.5L197.3 150.5Z M239.2 123.5L239.2 180.4L227.5 180.4L227.5 123.5L239.2 123.5ZM249.3 138.1L259.9 138.1L260.2 142.9Q264.7 137.4 272.4 137.4L272.4 137.4Q280.6 137.4 283.6 143.8L283.6 143.8Q288.1 137.4 296.3 137.4L296.3 137.4Q303.2 137.4 306.5 141.4Q309.9 145.4 309.9 153.4L309.9 153.4L309.9 180.4L298.6 180.4L298.6 153.5Q298.6 149.9 297.2 148.2Q295.8 146.5 292.2 146.5L292.2 146.5Q287.1 146.5 285.2 151.4L285.2 151.4L285.2 180.4L273.9 180.4L273.9 153.5Q273.9 149.8 272.5 148.2Q271.0 146.5 267.5 146.5L267.5 146.5Q262.7 146.5 260.6 150.5L260.6 150.5L260.6 180.4L249.3 180.4L249.3 138.1ZM354.5 180.4L343.1 180.4Q342.3 178.9 341.9 176.6L341.9 176.6Q337.8 181.2 331.3 181.2L331.3 181.2Q325.0 181.2 321.0 177.6Q316.9 174.0 316.9 168.5L316.9 168.5Q316.9 161.8 321.9 158.2Q326.8 154.6 336.3 154.6L336.3 154.6L341.5 154.6L341.5 152.2Q341.5 149.2 339.9 147.5Q338.4 145.7 335.2 145.7L335.2 145.7Q332.4 145.7 330.7 147.1Q329.1 148.5 329.1 150.8L329.1 150.8L317.8 150.8Q317.8 147.2 320.1 144.0Q322.4 140.9 326.5 139.1Q330.6 137.4 335.8 137.4L335.8 137.4Q343.6 137.4 348.2 141.3Q352.8 145.2 352.8 152.3L352.8 152.3L352.8 170.6Q352.8 176.7 354.5 179.8L354.5 179.8L354.5 180.4ZM333.7 172.6L333.7 172.6Q336.2 172.6 338.3 171.4Q340.4 170.3 341.5 168.5L341.5 168.5L341.5 161.2L337.2 161.2Q328.8 161.2 328.2 167.1L328.2 167.1L328.2 167.7Q328.2 169.8 329.7 171.2Q331.1 172.6 333.7 172.6ZM359.8 159.4L359.8 159.0Q359.8 149.2 364.4 143.3Q369.1 137.4 376.9 137.4L376.9 137.4Q383.9 137.4 387.7 142.1L387.7 142.1L388.2 138.1L398.4 138.1L398.4 179.0Q398.4 184.6 395.9 188.7Q393.4 192.8 388.8 194.9Q384.3 197.1 378.1 197.1L378.1 197.1Q373.5 197.1 369.1 195.2Q364.7 193.3 362.4 190.4L362.4 190.4L367.4 183.5Q371.6 188.3 377.6 188.3L377.6 188.3Q382.1 188.3 384.6 185.9Q387.1 183.5 387.1 179.0L387.1 179.0L387.1 176.8Q383.2 181.2 376.8 181.2L376.8 181.2Q369.2 181.2 364.5 175.2Q359.8 169.3 359.8 159.4L359.8 159.4ZM371.1 159.8L371.1 159.8Q371.1 165.5 373.4 168.8Q375.7 172.1 379.7 172.1L379.7 172.1Q384.9 172.1 387.1 168.2L387.1 168.2L387.1 150.4Q384.9 146.5 379.8 146.5L379.8 146.5Q375.8 146.5 373.4 149.9Q371.1 153.2 371.1 159.8ZM426.6 181.2L426.6 181.2Q417.3 181.2 411.4 175.5Q405.6 169.8 405.6 160.3L405.6 160.3L405.6 159.2Q405.6 152.8 408.1 147.8Q410.5 142.8 415.0 140.1Q419.5 137.4 425.3 137.4L425.3 137.4Q434.0 137.4 439.0 142.8Q444.0 148.3 444.0 158.3L444.0 158.3L444.0 163.0L417.0 163.0Q417.6 167.1 420.3 169.6Q423.1 172.1 427.3 172.1L427.3 172.1Q433.8 172.1 437.5 167.4L437.5 167.4L443.1 173.6Q440.5 177.2 436.2 179.2Q431.8 181.2 426.6 181.2ZM425.3 146.5L425.3 146.5Q421.9 146.5 419.8 148.8Q417.7 151.0 417.2 155.3L417.2 155.3L432.9 155.3L432.9 154.4Q432.8 150.6 430.8 148.6Q428.9 146.5 425.3 146.5Z M516.0 150.5L516.0 173.2Q512.9 177.0 507.1 179.1Q501.3 181.2 494.3 181.2L494.3 181.2Q486.9 181.2 481.3 178.0Q475.8 174.8 472.7 168.6Q469.7 162.5 469.6 154.2L469.6 154.2L469.6 150.3Q469.6 141.8 472.5 135.6Q475.4 129.4 480.8 126.1Q486.2 122.8 493.4 122.8L493.4 122.8Q503.6 122.8 509.3 127.6Q515.0 132.4 516.0 141.6L516.0 141.6L504.6 141.6Q503.8 136.7 501.2 134.5Q498.5 132.2 493.8 132.2L493.8 132.2Q487.8 132.2 484.7 136.7Q481.6 141.2 481.5 150.1L481.5 150.1L481.5 153.7Q481.5 162.6 484.9 167.2Q488.3 171.8 494.9 171.8L494.9 171.8Q501.5 171.8 504.3 169.0L504.3 169.0L504.3 159.2L493.6 159.2L493.6 150.5L516.0 150.5ZM544.2 181.2L544.2 181.2Q534.9 181.2 529.1 175.5Q523.3 169.8 523.3 160.3L523.3 160.3L523.3 159.2Q523.3 152.8 525.7 147.8Q528.2 142.8 532.7 140.1Q537.2 137.4 543.0 137.4L543.0 137.4Q551.6 137.4 556.6 142.8Q561.6 148.3 561.6 158.3L561.6 158.3L561.6 163.0L534.7 163.0Q535.2 167.1 538.0 169.6Q540.8 172.1 545.0 172.1L545.0 172.1Q551.5 172.1 555.2 167.4L555.2 167.4L560.7 173.6Q558.2 177.2 553.8 179.2Q549.5 181.2 544.2 181.2ZM542.9 146.5L542.9 146.5Q539.6 146.5 537.5 148.8Q535.4 151.0 534.8 155.3L534.8 155.3L550.5 155.3L550.5 154.4Q550.4 150.6 548.5 148.6Q546.5 146.5 542.9 146.5ZM567.8 138.1L578.4 138.1L578.8 143.0Q583.3 137.4 590.9 137.4L590.9 137.4Q597.6 137.4 600.9 141.3Q604.2 145.3 604.3 153.1L604.3 153.1L604.3 180.4L593.0 180.4L593.0 153.4Q593.0 149.8 591.4 148.2Q589.9 146.5 586.2 146.5L586.2 146.5Q581.5 146.5 579.1 150.6L579.1 150.6L579.1 180.4L567.8 180.4L567.8 138.1ZM632.3 181.2L632.3 181.2Q623.0 181.2 617.1 175.5Q611.3 169.8 611.3 160.3L611.3 160.3L611.3 159.2Q611.3 152.8 613.8 147.8Q616.2 142.8 620.7 140.1Q625.2 137.4 631.0 137.4L631.0 137.4Q639.7 137.4 644.7 142.8Q649.7 148.3 649.7 158.3L649.7 158.3L649.7 163.0L622.7 163.0Q623.3 167.1 626.0 169.6Q628.8 172.1 633.0 172.1L633.0 172.1Q639.5 172.1 643.2 167.4L643.2 167.4L648.8 173.6Q646.2 177.2 641.9 179.2Q637.5 181.2 632.3 181.2ZM631.0 146.5L631.0 146.5Q627.6 146.5 625.5 148.8Q623.4 151.0 622.9 155.3L622.9 155.3L638.6 155.3L638.6 154.4Q638.5 150.6 636.5 148.6Q634.6 146.5 631.0 146.5ZM680.0 137.9L679.8 148.7Q677.5 148.4 675.8 148.4L675.8 148.4Q669.3 148.4 667.4 152.8L667.4 152.8L667.4 180.4L656.1 180.4L656.1 138.1L666.7 138.1L667.0 143.2Q670.4 137.4 676.5 137.4L676.5 137.4Q678.3 137.4 680.0 137.9L680.0 137.9ZM720.0 180.4L708.6 180.4Q707.8 178.9 707.4 176.6L707.4 176.6Q703.3 181.2 696.8 181.2L696.8 181.2Q690.6 181.2 686.5 177.6Q682.4 174.0 682.4 168.5L682.4 168.5Q682.4 161.8 687.4 158.2Q692.4 154.6 701.8 154.6L701.8 154.6L707.0 154.6L707.0 152.2Q707.0 149.2 705.5 147.5Q704.0 145.7 700.7 145.7L700.7 145.7Q697.9 145.7 696.2 147.1Q694.6 148.5 694.6 150.8L694.6 150.8L683.3 150.8Q683.3 147.2 685.6 144.0Q687.9 140.9 692 139.1Q696.1 137.4 701.3 137.4L701.3 137.4Q709.1 137.4 713.7 141.3Q718.3 145.2 718.3 152.3L718.3 152.3L718.3 170.6Q718.3 176.7 720.0 179.8L720.0 179.8L720.0 180.4ZM699.2 172.6L699.2 172.6Q701.7 172.6 703.8 171.4Q705.9 170.3 707.0 168.5L707.0 168.5L707.0 161.2L702.7 161.2Q694.3 161.2 693.7 167.1L693.7 167.1L693.7 167.7Q693.7 169.8 695.2 171.2Q696.6 172.6 699.2 172.6ZM729.2 127.8L740.5 127.8L740.5 138.1L747.7 138.1L747.7 146.4L740.5 146.4L740.5 167.5Q740.5 169.9 741.4 170.9Q742.3 171.9 744.8 171.9L744.8 171.9Q746.7 171.9 748.1 171.6L748.1 171.6L748.1 180.2Q744.8 181.2 741.3 181.2L741.3 181.2Q729.4 181.2 729.2 169.2L729.2 169.2L729.2 146.4L723.0 146.4L723.0 138.1L729.2 138.1L729.2 127.8ZM751.1 159.4L751.1 158.9Q751.1 152.6 753.5 147.7Q755.9 142.8 760.5 140.1Q765.0 137.4 771.0 137.4L771.0 137.4Q779.6 137.4 785.0 142.6Q790.4 147.8 791.0 156.8L791.0 156.8L791.1 159.7Q791.1 169.4 785.7 175.3Q780.2 181.2 771.1 181.2Q762.0 181.2 756.5 175.3Q751.1 169.5 751.1 159.4L751.1 159.4ZM762.4 159.7L762.4 159.7Q762.4 165.7 764.6 168.9Q766.9 172.1 771.1 172.1L771.1 172.1Q775.2 172.1 777.5 168.9Q779.8 165.8 779.8 158.9L779.8 158.9Q779.8 153.0 777.5 149.8Q775.2 146.5 771.0 146.5L771.0 146.5Q766.9 146.5 764.6 149.7Q762.4 153.0 762.4 159.7ZM822.0 137.9L821.8 148.7Q819.5 148.4 817.7 148.4L817.7 148.4Q811.3 148.4 809.3 152.8L809.3 152.8L809.3 180.4L798.1 180.4L798.1 138.1L808.7 138.1L809.0 143.2Q812.4 137.4 818.4 137.4L818.4 137.4Q820.3 137.4 822.0 137.9L822.0 137.9Z M872.8 180.4L872.5 176.1Q868.3 181.2 860.9 181.2L860.9 181.2Q854.1 181.2 850.5 177.3Q847.0 173.4 846.9 165.8L846.9 165.8L846.9 138.1L858.2 138.1L858.2 165.5Q858.2 172.1 864.2 172.1L864.2 172.1Q869.9 172.1 872.1 168.1L872.1 168.1L872.1 138.1L883.4 138.1L883.4 180.4L872.8 180.4ZM914.8 168.7L914.8 168.7Q914.8 166.7 912.8 165.5Q910.7 164.3 906.2 163.3L906.2 163.3Q891.1 160.2 891.1 150.5L891.1 150.5Q891.1 144.9 895.8 141.1Q900.4 137.4 908.0 137.4L908.0 137.4Q916.0 137.4 920.8 141.2Q925.7 144.9 925.7 151.0L925.7 151.0L914.4 151.0Q914.4 148.6 912.8 147.0Q911.3 145.4 907.9 145.4L907.9 145.4Q905.1 145.4 903.5 146.7Q902.0 148.0 902.0 150.0L902.0 150.0Q902.0 151.9 903.7 153.0Q905.5 154.2 909.7 155.0Q914.0 155.8 916.8 156.9L916.8 156.9Q925.8 160.2 925.8 168.3L925.8 168.3Q925.8 174.0 920.8 177.6Q915.9 181.2 908.0 181.2L908.0 181.2Q902.7 181.2 898.6 179.3Q894.5 177.4 892.1 174.1Q889.8 170.8 889.8 167.0L889.8 167.0L900.5 167.0Q900.6 170.0 902.7 171.6Q904.8 173.2 908.3 173.2L908.3 173.2Q911.5 173.2 913.2 172.0Q914.8 170.7 914.8 168.7ZM945.0 138.1L945.0 180.4L933.6 180.4L933.6 138.1L945.0 138.1ZM933.0 127.2L933.0 127.2Q933.0 124.7 934.7 123.0Q936.4 121.4 939.3 121.4L939.3 121.4Q942.2 121.4 943.9 123.0Q945.6 124.7 945.6 127.2L945.6 127.2Q945.6 129.8 943.9 131.4Q942.2 133.1 939.3 133.1Q936.5 133.1 934.7 131.4Q933.0 129.8 933.0 127.2ZM954.0 138.1L964.7 138.1L965.0 143.0Q969.5 137.4 977.2 137.4L977.2 137.4Q983.9 137.4 987.2 141.3Q990.4 145.3 990.5 153.1L990.5 153.1L990.5 180.4L979.2 180.4L979.2 153.4Q979.2 149.8 977.7 148.2Q976.1 146.5 972.5 146.5L972.5 146.5Q967.7 146.5 965.3 150.6L965.3 150.6L965.3 180.4L954.0 180.4L954.0 138.1ZM997.4 159.4L997.4 159.0Q997.4 149.2 1002.1 143.3Q1006.7 137.4 1014.5 137.4L1014.5 137.4Q1021.5 137.4 1025.4 142.1L1025.4 142.1L1025.8 138.1L1036.1 138.1L1036.1 179.0Q1036.1 184.6 1033.5 188.7Q1031.0 192.8 1026.5 194.9Q1021.9 197.1 1015.8 197.1L1015.8 197.1Q1011.1 197.1 1006.7 195.2Q1002.3 193.3 1000.0 190.4L1000.0 190.4L1005.0 183.5Q1009.2 188.3 1015.2 188.3L1015.2 188.3Q1019.7 188.3 1022.2 185.9Q1024.7 183.5 1024.7 179.0L1024.7 179.0L1024.7 176.8Q1020.8 181.2 1014.5 181.2L1014.5 181.2Q1006.8 181.2 1002.1 175.2Q997.4 169.3 997.4 159.4L997.4 159.4ZM1008.7 159.8L1008.7 159.8Q1008.7 165.5 1011.0 168.8Q1013.3 172.1 1017.4 172.1L1017.4 172.1Q1022.5 172.1 1024.7 168.2L1024.7 168.2L1024.7 150.4Q1022.5 146.5 1017.4 146.5L1017.4 146.5Q1013.4 146.5 1011.0 149.9Q1008.7 153.2 1008.7 159.8Z M143.3 217.3L143.3 274.2L131.6 274.2L108.8 236.7L108.8 274.2L97.1 274.2L97.1 217.3L108.8 217.3L131.6 254.8L131.6 217.3L143.3 217.3ZM178.4 274.2L178.1 269.9Q174.0 274.9 166.6 274.9L166.6 274.9Q159.8 274.9 156.2 271.0Q152.6 267.1 152.5 259.6L152.5 259.6L152.5 231.9L163.8 231.9L163.8 259.2Q163.8 265.8 169.9 265.8L169.9 265.8Q175.6 265.8 177.7 261.8L177.7 261.8L177.7 231.9L189.1 231.9L189.1 274.2L178.4 274.2ZM206.7 231.9L213.7 244.5L220.8 231.9L232.9 231.9L220.8 252.6L233.4 274.2L221.3 274.2L213.7 260.9L206.2 274.2L194.1 274.2L206.6 252.6L194.6 231.9L206.7 231.9ZM240.5 221.5L251.8 221.5L251.8 231.9L259.0 231.9L259.0 240.2L251.8 240.2L251.8 261.3Q251.8 263.6 252.7 264.6Q253.6 265.6 256.1 265.6L256.1 265.6Q258.0 265.6 259.5 265.4L259.5 265.4L259.5 273.9Q256.1 274.9 252.6 274.9L252.6 274.9Q240.8 274.9 240.5 263.0L240.5 263.0L240.5 240.2L234.3 240.2L234.3 231.9L240.5 231.9L240.5 221.5Z M321.1 274.2L309.7 274.2Q309.0 272.6 308.6 270.4L308.6 270.4Q304.5 274.9 297.9 274.9L297.9 274.9Q291.7 274.9 287.6 271.4Q283.6 267.8 283.6 262.3L283.6 262.3Q283.6 255.6 288.5 252.0Q293.5 248.4 302.9 248.3L302.9 248.3L308.1 248.3L308.1 245.9Q308.1 243.0 306.6 241.2Q305.1 239.5 301.9 239.5L301.9 239.5Q299.0 239.5 297.4 240.8Q295.8 242.2 295.8 244.6L295.8 244.6L284.5 244.6Q284.5 240.9 286.8 237.8Q289.0 234.7 293.2 232.9Q297.3 231.1 302.5 231.1L302.5 231.1Q310.3 231.1 314.9 235.0Q319.5 239.0 319.5 246.1L319.5 246.1L319.5 264.4Q319.5 270.4 321.1 273.5L321.1 273.5L321.1 274.2ZM300.4 266.3L300.4 266.3Q302.9 266.3 305.0 265.2Q307.1 264.1 308.1 262.2L308.1 262.2L308.1 254.9L303.9 254.9Q295.4 254.9 294.9 260.8L294.9 260.8L294.9 261.5Q294.9 263.6 296.3 264.9Q297.8 266.3 300.4 266.3ZM327.9 231.9L338.5 231.9L338.9 236.8Q343.4 231.1 351.0 231.1L351.0 231.1Q357.7 231.1 361.0 235.1Q364.3 239.0 364.4 246.9L364.4 246.9L364.4 274.2L353.1 274.2L353.1 247.1Q353.1 243.5 351.5 241.9Q350.0 240.3 346.3 240.3L346.3 240.3Q341.6 240.3 339.2 244.4L339.2 244.4L339.2 274.2L327.9 274.2L327.9 231.9ZM371.2 252.7L371.2 252.7Q371.2 242.8 375.6 237.0Q380.0 231.1 387.7 231.1L387.7 231.1Q393.9 231.1 397.9 235.7L397.9 235.7L397.9 214.2L409.3 214.2L409.3 274.2L399.1 274.2L398.5 269.7Q394.3 274.9 387.7 274.9L387.7 274.9Q380.2 274.9 375.7 269.1Q371.2 263.2 371.2 252.7ZM382.5 253.5L382.5 253.5Q382.5 259.5 384.5 262.6Q386.6 265.8 390.6 265.8L390.6 265.8Q395.8 265.8 397.9 261.4L397.9 261.4L397.9 244.7Q395.8 240.3 390.6 240.3L390.6 240.3Q382.5 240.3 382.5 253.5Z M468.2 259.2L468.2 259.2Q468.2 255.9 465.8 254.1Q463.5 252.4 457.4 250.4Q451.3 248.4 447.7 246.5L447.7 246.5Q438.1 241.3 438.1 232.4L438.1 232.4Q438.1 227.8 440.7 224.2Q443.3 220.6 448.1 218.5Q453.0 216.5 459.0 216.5L459.0 216.5Q465.1 216.5 469.9 218.7Q474.7 220.9 477.3 224.9Q479.9 229.0 479.9 234.1L479.9 234.1L468.2 234.1Q468.2 230.2 465.8 228.0Q463.3 225.8 458.8 225.8L458.8 225.8Q454.5 225.8 452.2 227.7Q449.8 229.5 449.8 232.4L449.8 232.4Q449.8 235.2 452.6 237.1Q455.4 239.0 460.8 240.6L460.8 240.6Q470.8 243.6 475.4 248.1Q479.9 252.5 479.9 259.2L479.9 259.2Q479.9 266.5 474.3 270.7Q468.8 274.9 459.3 274.9L459.3 274.9Q452.7 274.9 447.4 272.5Q442.0 270.1 439.1 266.0Q436.3 261.8 436.3 256.3L436.3 256.3L448.1 256.3Q448.1 265.7 459.3 265.7L459.3 265.7Q463.5 265.7 465.8 264.0Q468.2 262.3 468.2 259.2ZM523.0 274.2L511.6 274.2Q510.8 272.6 510.5 270.4L510.5 270.4Q506.4 274.9 499.8 274.9L499.8 274.9Q493.6 274.9 489.5 271.4Q485.4 267.8 485.4 262.3L485.4 262.3Q485.4 255.6 490.4 252.0Q495.4 248.4 504.8 248.3L504.8 248.3L510.0 248.3L510.0 245.9Q510.0 243.0 508.5 241.2Q507 239.5 503.8 239.5L503.8 239.5Q500.9 239.5 499.3 240.8Q497.7 242.2 497.7 244.6L497.7 244.6L486.4 244.6Q486.4 240.9 488.6 237.8Q490.9 234.7 495.0 232.9Q499.2 231.1 504.3 231.1L504.3 231.1Q512.2 231.1 516.7 235.0Q521.3 239.0 521.3 246.1L521.3 246.1L521.3 264.4Q521.4 270.4 523.0 273.5L523.0 273.5L523.0 274.2ZM502.3 266.3L502.3 266.3Q504.8 266.3 506.9 265.2Q509.0 264.1 510.0 262.2L510.0 262.2L510.0 254.9L505.8 254.9Q497.3 254.9 496.8 260.8L496.8 260.8L496.7 261.5Q496.7 263.6 498.2 264.9Q499.7 266.3 502.3 266.3ZM532.2 221.5L543.5 221.5L543.5 231.9L550.8 231.9L550.8 240.2L543.5 240.2L543.5 261.3Q543.5 263.6 544.4 264.6Q545.3 265.6 547.9 265.6L547.9 265.6Q549.7 265.6 551.2 265.4L551.2 265.4L551.2 273.9Q547.9 274.9 544.3 274.9L544.3 274.9Q532.5 274.9 532.2 263.0L532.2 263.0L532.2 240.2L526.1 240.2L526.1 231.9L532.2 231.9L532.2 221.5ZM554.1 253.1L554.1 252.6Q554.1 246.4 556.5 241.4Q559.0 236.5 563.5 233.8Q568.1 231.1 574.1 231.1L574.1 231.1Q582.6 231.1 588.0 236.4Q593.4 241.6 594.1 250.6L594.1 250.6L594.1 253.5Q594.1 263.2 588.7 269.1Q583.3 274.9 574.1 274.9Q565.0 274.9 559.6 269.1Q554.1 263.2 554.1 253.1L554.1 253.1ZM565.4 253.5L565.4 253.5Q565.4 259.5 567.7 262.7Q569.9 265.8 574.1 265.8L574.1 265.8Q578.3 265.8 580.6 262.7Q582.9 259.6 582.9 252.6L582.9 252.6Q582.9 246.7 580.6 243.5Q578.3 240.3 574.1 240.3L574.1 240.3Q569.9 240.3 567.7 243.5Q565.4 246.7 565.4 253.5ZM625.0 231.6L624.9 242.5Q622.5 242.2 620.8 242.2L620.8 242.2Q614.4 242.2 612.4 246.5L612.4 246.5L612.4 274.2L601.1 274.2L601.1 231.9L611.8 231.9L612.1 236.9Q615.5 231.1 621.5 231.1L621.5 231.1Q623.4 231.1 625.0 231.6L625.0 231.6ZM642.2 231.9L642.2 274.2L630.9 274.2L630.9 231.9L642.2 231.9ZM630.2 221.0L630.2 221.0Q630.2 218.4 631.9 216.8Q633.6 215.1 636.5 215.1L636.5 215.1Q639.4 215.1 641.1 216.8Q642.9 218.4 642.9 221.0L642.9 221.0Q642.9 223.5 641.1 225.2Q639.4 226.8 636.5 226.8Q633.7 226.8 631.9 225.2Q630.2 223.5 630.2 221.0Z "></path><path fill="black" d="M95.7 556.1L98.0 564.7L100.4 556.1L103.9 556.1L99.7 568.8L96.4 568.8L92.2 556.1L95.7 556.1ZM108.7 561.4L108.7 558.8L110.5 558.8Q111.8 558.8 112.4 558.1Q113.1 557.5 113.1 556.4L113.1 556.4Q113.1 555.4 112.5 554.8Q111.8 554.2 110.8 554.2L110.8 554.2Q109.8 554.2 109.1 554.8Q108.5 555.3 108.5 556.1L108.5 556.1L105.1 556.1Q105.1 554.8 105.8 553.7Q106.5 552.7 107.8 552.1Q109.1 551.5 110.7 551.5L110.7 551.5Q113.4 551.5 114.9 552.8Q116.5 554.1 116.5 556.4L116.5 556.4Q116.5 557.5 115.7 558.5Q115.0 559.5 113.9 560.0L113.9 560.0Q115.3 560.5 116.0 561.6Q116.7 562.6 116.7 564.0L116.7 564.0Q116.7 566.3 115.1 567.7Q113.4 569.0 110.7 569.0L110.7 569.0Q108.1 569.0 106.5 567.7Q104.9 566.3 104.9 564.1L104.9 564.1L108.3 564.1Q108.3 565.1 109.0 565.7Q109.7 566.3 110.8 566.3L110.8 566.3Q112.0 566.3 112.7 565.7Q113.3 565.0 113.3 564.0L113.3 564.0Q113.3 561.4 110.5 561.4L110.5 561.4L108.7 561.4Z M119.4 567.1L119.4 567.1Q119.4 566.3 119.9 565.8Q120.5 565.3 121.3 565.3L121.3 565.3Q122.1 565.3 122.7 565.8Q123.2 566.3 123.2 567.1L123.2 567.1Q123.2 567.9 122.7 568.4Q122.1 568.9 121.3 568.9L121.3 568.9Q120.5 568.9 119.9 568.4Q119.4 567.9 119.4 567.1Z M126.1 556.1L129.3 556.1L129.4 557.6Q130.8 555.9 133.0 555.9L133.0 555.9Q135.1 555.9 136.0 557.1Q137.0 558.2 137.0 560.6L137.0 560.6L137.0 568.8L133.7 568.8L133.7 560.7Q133.7 559.6 133.2 559.1Q132.7 558.6 131.6 558.6L131.6 558.6Q130.2 558.6 129.5 559.8L129.5 559.8L129.5 568.8L126.1 568.8L126.1 556.1ZM147.3 568.8L147.2 567.5Q146.0 569.0 143.7 569.0L143.7 569.0Q141.7 569.0 140.6 567.8Q139.6 566.7 139.5 564.4L139.5 564.4L139.5 556.1L142.9 556.1L142.9 564.3Q142.9 566.3 144.7 566.3L144.7 566.3Q146.4 566.3 147.1 565.1L147.1 565.1L147.1 556.1L150.5 556.1L150.5 568.8L147.3 568.8ZM155.8 556.1L157.9 559.9L160.0 556.1L163.6 556.1L160.0 562.3L163.8 568.8L160.1 568.8L157.9 564.8L155.6 568.8L152.0 568.8L155.8 562.3L152.2 556.1L155.8 556.1ZM165.9 553.0L169.3 553.0L169.3 556.1L171.5 556.1L171.5 558.6L169.3 558.6L169.3 564.9Q169.3 565.6 169.6 565.9Q169.8 566.2 170.6 566.2L170.6 566.2Q171.2 566.2 171.6 566.2L171.6 566.2L171.6 568.7Q170.6 569.0 169.6 569.0L169.6 569.0Q166.0 569.0 165.9 565.4L165.9 565.4L165.9 558.6L164.1 558.6L164.1 556.1L165.9 556.1L165.9 553.0ZM173.6 556.1L176.9 556.1L176.9 569.5Q176.9 571.6 175.8 572.7Q174.7 573.9 172.6 573.9L172.6 573.9Q171.7 573.9 170.9 573.7L170.9 573.7L170.9 571.0Q171.6 571.1 172.0 571.1L172.0 571.1Q173.6 571.1 173.6 569.5L173.6 569.5L173.6 556.1ZM173.3 552.8L173.3 552.8Q173.3 552.1 173.8 551.6Q174.3 551.1 175.2 551.1Q176.1 551.1 176.6 551.6Q177.1 552.1 177.1 552.8L177.1 552.8Q177.1 553.6 176.6 554.1Q176.0 554.6 175.2 554.6Q174.3 554.6 173.8 554.1Q173.3 553.6 173.3 552.8ZM186.5 565.3L186.5 565.3Q186.5 564.7 185.8 564.3Q185.2 563.9 183.9 563.7L183.9 563.7Q179.4 562.7 179.4 559.8L179.4 559.8Q179.4 558.1 180.8 557.0Q182.2 555.9 184.4 555.9L184.4 555.9Q186.8 555.9 188.3 557.0Q189.7 558.1 189.7 560.0L189.7 560.0L186.3 560.0Q186.3 559.2 185.9 558.8Q185.4 558.3 184.4 558.3L184.4 558.3Q183.5 558.3 183.1 558.7Q182.6 559.1 182.6 559.7L182.6 559.7Q182.6 560.2 183.1 560.6Q183.7 560.9 184.9 561.2Q186.2 561.4 187.1 561.7L187.1 561.7Q189.8 562.7 189.8 565.1L189.8 565.1Q189.8 566.9 188.3 567.9Q186.8 569.0 184.4 569.0L184.4 569.0Q182.8 569.0 181.6 568.5Q180.4 567.9 179.7 566.9Q179.0 565.9 179.0 564.8L179.0 564.8L182.2 564.8Q182.2 565.7 182.8 566.1Q183.5 566.6 184.5 566.6L184.5 566.6Q185.5 566.6 186.0 566.2Q186.5 565.9 186.5 565.3ZM192.1 567.1L192.1 567.1Q192.1 566.3 192.7 565.8Q193.2 565.3 194.0 565.3L194.0 565.3Q194.9 565.3 195.4 565.8Q195.9 566.3 195.9 567.1L195.9 567.1Q195.9 567.9 195.4 568.4Q194.9 568.9 194.0 568.9L194.0 568.9Q193.2 568.9 192.7 568.4Q192.1 567.9 192.1 567.1ZM198.4 562.5L198.4 562.3Q198.4 560.4 199.1 559.0Q199.8 557.5 201.2 556.7Q202.6 555.9 204.4 555.9L204.4 555.9Q206.9 555.9 208.6 557.4Q210.2 559.0 210.4 561.7L210.4 561.7L210.4 562.6Q210.4 565.5 208.8 567.3Q207.1 569.0 204.4 569.0Q201.7 569.0 200.0 567.3Q198.4 565.5 198.4 562.5L198.4 562.5ZM201.8 562.6L201.8 562.6Q201.8 564.4 202.4 565.3Q203.1 566.3 204.4 566.3L204.4 566.3Q205.6 566.3 206.3 565.3Q207.0 564.4 207.0 562.3L207.0 562.3Q207.0 560.6 206.3 559.6Q205.6 558.6 204.4 558.6L204.4 558.6Q203.1 558.6 202.4 559.6Q201.8 560.5 201.8 562.6ZM219.7 556.0L219.6 559.3Q218.9 559.2 218.4 559.2L218.4 559.2Q216.5 559.2 215.9 560.5L215.9 560.5L215.9 568.8L212.5 568.8L212.5 556.1L215.7 556.1L215.8 557.6Q216.8 555.9 218.6 555.9L218.6 555.9Q219.2 555.9 219.7 556.0L219.7 556.0ZM220.5 562.5L220.5 562.4Q220.5 559.4 221.9 557.7Q223.3 555.9 225.7 555.9L225.7 555.9Q227.7 555.9 228.9 557.3L228.9 557.3L229.0 556.1L232.1 556.1L232.1 568.4Q232.1 570.0 231.4 571.3Q230.6 572.5 229.2 573.1Q227.9 573.8 226.0 573.8L226.0 573.8Q224.6 573.8 223.3 573.2Q222.0 572.7 221.3 571.8L221.3 571.8L222.8 569.7Q224.1 571.1 225.9 571.1L225.9 571.1Q227.2 571.1 228.0 570.4Q228.7 569.7 228.7 568.4L228.7 568.4L228.7 567.7Q227.5 569.0 225.6 569.0L225.6 569.0Q223.3 569.0 221.9 567.2Q220.5 565.4 220.5 562.5L220.5 562.5ZM223.9 562.6L223.9 562.6Q223.9 564.3 224.6 565.3Q225.3 566.3 226.5 566.3L226.5 566.3Q228.0 566.3 228.7 565.1L228.7 565.1L228.7 559.8Q228.0 558.6 226.5 558.6L226.5 558.6Q225.3 558.6 224.6 559.6Q223.9 560.6 223.9 562.6Z "></path></svg>
