<svg width="1200" height="627" viewBox="0 0 1200 627" xmlns="http://www.w3.org/2000/svg"><defs><clipPath id="satori_bc-id-0"><rect x="0" y="0" width="1200" height="627"></rect></clipPath></defs><rect x="0" y="0" width="1200" height="627" fill="#f9fafb"></rect><path width="1200" height="627" clip-path="url(#satori_bc-id-0)" fill="none" stroke="#3b82f6" stroke-width="24" d="M0,0 A0,0 0 0 1 0,0 h1200 a0,0 0 0 1 0,0 v627 a0,0 0 0 1 0,0 h-1200 a0,0 0 0 1 0,0 v-627 A0,0 0 0 1 0,0"></path><path fill="black" d="M143.4 123.5L143.4 180.4L131.6 180.4L131.6 156.0L108.8 156.0L108.8 180.4L97.1 180.4L97.1 123.5L108.8 123.5L108.8 146.6L131.6 146.6L131.6 123.5L143.4 123.5ZM172.3 181.2L172.3 181.2Q163.0 181.2 157.2 175.5Q151.3 169.8 151.3 160.3L151.3 160.3L151.3 159.2Q151.3 152.8 153.8 147.8Q156.3 142.8 160.8 140.1Q165.3 137.4 171.1 137.4L171.1 137.4Q179.7 137.4 184.7 142.8Q189.7 148.3 189.7 158.3L189.7 158.3L189.7 163.0L162.8 163.0Q163.3 167.1 166.1 169.6Q168.8 172.1 173.1 172.1L173.1 172.1Q179.6 172.1 183.3 167.4L183.3 167.4L188.8 173.6Q186.3 177.2 181.9 179.2Q177.6 181.2 172.3 181.2ZM171.0 146.5L171.0 146.5Q167.7 146.5 165.6 148.8Q163.5 151.0 162.9 155.3L162.9 155.3L178.6 155.3L178.6 154.4Q178.5 150.6 176.6 148.6Q174.6 146.5 171.0 146.5ZM208.0 120.4L208.0 180.4L196.7 180.4L196.7 120.4L208.0 120.4ZM229.2 120.4L229.2 180.4L217.9 180.4L217.9 120.4L229.2 120.4ZM236.8 159.4L236.8 158.9Q236.8 152.6 239.2 147.7Q241.6 142.8 246.2 140.1Q250.7 137.4 256.7 137.4L256.7 137.4Q265.3 137.4 270.7 142.6Q276.1 147.8 276.7 156.8L276.7 156.8L276.8 159.7Q276.8 169.4 271.4 175.3Q265.9 181.2 256.8 181.2Q247.7 181.2 242.2 175.3Q236.8 169.5 236.8 159.4L236.8 159.4ZM248.1 159.7L248.1 159.7Q248.1 165.7 250.3 168.9Q252.6 172.1 256.8 172.1L256.8 172.1Q260.9 172.1 263.2 168.9Q265.5 165.8 265.5 158.9L265.5 158.9Q265.5 153.0 263.2 149.8Q260.9 146.5 256.7 146.5L256.7 146.5Q252.6 146.5 250.3 149.7Q248.1 153.0 248.1 159.7Z M318.1 180.4L306.8 180.4L306.8 146.4L300.5 146.4L300.5 138.1L306.8 138.1L306.8 134.6Q306.8 127.4 310.8 123.5Q314.9 119.6 322.3 119.6L322.3 119.6Q324.6 119.6 328.0 120.4L328.0 120.4L327.9 129.1Q326.5 128.8 324.5 128.8L324.5 128.8Q318.1 128.8 318.1 134.8L318.1 134.8L318.1 138.1L326.5 138.1L326.5 146.4L318.1 146.4L318.1 180.4ZM356.3 137.9L356.1 148.7Q353.8 148.4 352.0 148.4L352.0 148.4Q345.6 148.4 343.6 152.8L343.6 152.8L343.6 180.4L332.4 180.4L332.4 138.1L343.0 138.1L343.3 143.2Q346.7 137.4 352.7 137.4L352.7 137.4Q354.6 137.4 356.3 137.9L356.3 137.9ZM358.4 159.4L358.4 158.9Q358.4 152.6 360.8 147.7Q363.2 142.8 367.8 140.1Q372.3 137.4 378.3 137.4L378.3 137.4Q386.9 137.4 392.3 142.6Q397.7 147.8 398.3 156.8L398.3 156.8L398.4 159.7Q398.4 169.4 393.0 175.3Q387.5 181.2 378.4 181.2Q369.3 181.2 363.8 175.3Q358.4 169.5 358.4 159.4L358.4 159.4ZM369.7 159.7L369.7 159.7Q369.7 165.7 371.9 168.9Q374.2 172.1 378.4 172.1L378.4 172.1Q382.5 172.1 384.8 168.9Q387.1 165.8 387.1 158.9L387.1 158.9Q387.1 153.0 384.8 149.8Q382.5 146.5 378.3 146.5L378.3 146.5Q374.2 146.5 371.9 149.7Q369.7 153.0 369.7 159.7ZM405.4 138.1L415.9 138.1L416.3 142.9Q420.8 137.4 428.4 137.4L428.4 137.4Q436.6 137.4 439.7 143.8L439.7 143.8Q444.1 137.4 452.4 137.4L452.4 137.4Q459.2 137.4 462.6 141.4Q465.9 145.4 465.9 153.4L465.9 153.4L465.9 180.4L454.6 180.4L454.6 153.5Q454.6 149.9 453.2 148.2Q451.8 146.5 448.3 146.5L448.3 146.5Q443.2 146.5 441.2 151.4L441.2 151.4L441.3 180.4L430.0 180.4L430.0 153.5Q430.0 149.8 428.5 148.2Q427.1 146.5 423.6 146.5L423.6 146.5Q418.8 146.5 416.6 150.5L416.6 150.5L416.6 180.4L405.4 180.4L405.4 138.1Z M541.5 123.5L541.5 180.4L529.8 180.4L507 143.0L507 180.4L495.3 180.4L495.3 123.5L507 123.5L529.9 161.0L529.9 123.5L541.5 123.5ZM576.6 180.4L576.3 176.1Q572.2 181.2 564.8 181.2L564.8 181.2Q558.0 181.2 554.4 177.3Q550.8 173.4 550.8 165.8L550.8 165.8L550.8 138.1L562.0 138.1L562.0 165.5Q562.0 172.1 568.1 172.1L568.1 172.1Q573.8 172.1 575.9 168.1L575.9 168.1L575.9 138.1L587.3 138.1L587.3 180.4L576.6 180.4ZM604.9 138.1L611.9 150.8L619.0 138.1L631.1 138.1L619.0 158.9L631.6 180.4L619.5 180.4L611.9 167.1L604.4 180.4L592.3 180.4L604.8 158.9L592.8 138.1L604.9 138.1ZM638.7 127.8L650.0 127.8L650.0 138.1L657.2 138.1L657.2 146.4L650.0 146.4L650.0 167.5Q650.0 169.9 650.9 170.9Q651.8 171.9 654.3 171.9L654.3 171.9Q656.2 171.9 657.7 171.6L657.7 171.6L657.7 180.2Q654.3 181.2 650.8 181.2L650.8 181.2Q639.0 181.2 638.7 169.2L638.7 169.2L638.7 146.4L632.5 146.4L632.5 138.1L638.7 138.1L638.7 127.8Z "></path><path fill="black" d="M95.7 556.1L98.0 564.7L100.4 556.1L103.9 556.1L99.7 568.8L96.4 568.8L92.2 556.1L95.7 556.1ZM108.7 561.4L108.7 558.8L110.5 558.8Q111.8 558.8 112.4 558.1Q113.1 557.5 113.1 556.4L113.1 556.4Q113.1 555.4 112.5 554.8Q111.8 554.2 110.8 554.2L110.8 554.2Q109.8 554.2 109.1 554.8Q108.5 555.3 108.5 556.1L108.5 556.1L105.1 556.1Q105.1 554.8 105.8 553.7Q106.5 552.7 107.8 552.1Q109.1 551.5 110.7 551.5L110.7 551.5Q113.4 551.5 114.9 552.8Q116.5 554.1 116.5 556.4L116.5 556.4Q116.5 557.5 115.7 558.5Q115.0 559.5 113.9 560.0L113.9 560.0Q115.3 560.5 116.0 561.6Q116.7 562.6 116.7 564.0L116.7 564.0Q116.7 566.3 115.1 567.7Q113.4 569.0 110.7 569.0L110.7 569.0Q108.1 569.0 106.5 567.7Q104.9 566.3 104.9 564.1L104.9 564.1L108.3 564.1Q108.3 565.1 109.0 565.7Q109.7 566.3 110.8 566.3L110.8 566.3Q112.0 566.3 112.7 565.7Q113.3 565.0 113.3 564.0L113.3 564.0Q113.3 561.4 110.5 561.4L110.5 561.4L108.7 561.4Z M119.4 567.1L119.4 567.1Q119.4 566.3 119.9 565.8Q120.5 565.3 121.3 565.3L121.3 565.3Q122.1 565.3 122.7 565.8Q123.2 566.3 123.2 567.1L123.2 567.1Q123.2 567.9 122.7 568.4Q122.1 568.9 121.3 568.9L121.3 568.9Q120.5 568.9 119.9 568.4Q119.4 567.9 119.4 567.1Z M126.1 556.1L129.3 556.1L129.4 557.6Q130.8 555.9 133.0 555.9L133.0 555.9Q135.1 555.9 136.0 557.1Q137.0 558.2 137.0 560.6L137.0 560.6L137.0 568.8L133.7 568.8L133.7 560.7Q133.7 559.6 133.2 559.1Q132.7 558.6 131.6 558.6L131.6 558.6Q130.2 558.6 129.5 559.8L129.5 559.8L129.5 568.8L126.1 568.8L126.1 556.1ZM147.3 568.8L147.2 567.5Q146.0 569.0 143.7 569.0L143.7 569.0Q141.7 569.0 140.6 567.8Q139.6 566.7 139.5 564.4L139.5 564.4L139.5 556.1L142.9 556.1L142.9 564.3Q142.9 566.3 144.7 566.3L144.7 566.3Q146.4 566.3 147.1 565.1L147.1 565.1L147.1 556.1L150.5 556.1L150.5 568.8L147.3 568.8ZM155.8 556.1L157.9 559.9L160.0 556.1L163.6 556.1L160.0 562.3L163.8 568.8L160.1 568.8L157.9 564.8L155.6 568.8L152.0 568.8L155.8 562.3L152.2 556.1L155.8 556.1ZM165.9 553.0L169.3 553.0L169.3 556.1L171.5 556.1L171.5 558.6L169.3 558.6L169.3 564.9Q169.3 565.6 169.6 565.9Q169.8 566.2 170.6 566.2L170.6 566.2Q171.2 566.2 171.6 566.2L171.6 566.2L171.6 568.7Q170.6 569.0 169.6 569.0L169.6 569.0Q166.0 569.0 165.9 565.4L165.9 565.4L165.9 558.6L164.1 558.6L164.1 556.1L165.9 556.1L165.9 553.0ZM173.6 556.1L176.9 556.1L176.9 569.5Q176.9 571.6 175.8 572.7Q174.7 573.9 172.6 573.9L172.6 573.9Q171.7 573.9 170.9 573.7L170.9 573.7L170.9 571.0Q171.6 571.1 172.0 571.1L172.0 571.1Q173.6 571.1 173.6 569.5L173.6 569.5L173.6 556.1ZM173.3 552.8L173.3 552.8Q173.3 552.1 173.8 551.6Q174.3 551.1 175.2 551.1Q176.1 551.1 176.6 551.6Q177.1 552.1 177.1 552.8L177.1 552.8Q177.1 553.6 176.6 554.1Q176.0 554.6 175.2 554.6Q174.3 554.6 173.8 554.1Q173.3 553.6 173.3 552.8ZM186.5 565.3L186.5 565.3Q186.5 564.7 185.8 564.3Q185.2 563.9 183.9 563.7L183.9 563.7Q179.4 562.7 179.4 559.8L179.4 559.8Q179.4 558.1 180.8 557.0Q182.2 555.9 184.4 555.9L184.4 555.9Q186.8 555.9 188.3 557.0Q189.7 558.1 189.7 560.0L189.7 560.0L186.3 560.0Q186.3 559.2 185.9 558.8Q185.4 558.3 184.4 558.3L184.4 558.3Q183.5 558.3 183.1 558.7Q182.6 559.1 182.6 559.7L182.6 559.7Q182.6 560.2 183.1 560.6Q183.7 560.9 184.9 561.2Q186.2 561.4 187.1 561.7L187.1 561.7Q189.8 562.7 189.8 565.1L189.8 565.1Q189.8 566.9 188.3 567.9Q186.8 569.0 184.4 569.0L184.4 569.0Q182.8 569.0 181.6 568.5Q180.4 567.9 179.7 566.9Q179.0 565.9 179.0 564.8L179.0 564.8L182.2 564.8Q182.2 565.7 182.8 566.1Q183.5 566.6 184.5 566.6L184.5 566.6Q185.5 566.6 186.0 566.2Q186.5 565.9 186.5 565.3ZM192.1 567.1L192.1 567.1Q192.1 566.3 192.7 565.8Q193.2 565.3 194.0 565.3L194.0 565.3Q194.9 565.3 195.4 565.8Q195.9 566.3 195.9 567.1L195.9 567.1Q195.9 567.9 195.4 568.4Q194.9 568.9 194.0 568.9L194.0 568.9Q193.2 568.9 192.7 568.4Q192.1 567.9 192.1 567.1ZM198.4 562.5L198.4 562.3Q198.4 560.4 199.1 559.0Q199.8 557.5 201.2 556.7Q202.6 555.9 204.4 555.9L204.4 555.9Q206.9 555.9 208.6 557.4Q210.2 559.0 210.4 561.7L210.4 561.7L210.4 562.6Q210.4 565.5 208.8 567.3Q207.1 569.0 204.4 569.0Q201.7 569.0 200.0 567.3Q198.4 565.5 198.4 562.5L198.4 562.5ZM201.8 562.6L201.8 562.6Q201.8 564.4 202.4 565.3Q203.1 566.3 204.4 566.3L204.4 566.3Q205.6 566.3 206.3 565.3Q207.0 564.4 207.0 562.3L207.0 562.3Q207.0 560.6 206.3 559.6Q205.6 558.6 204.4 558.6L204.4 558.6Q203.1 558.6 202.4 559.6Q201.8 560.5 201.8 562.6ZM219.7 556.0L219.6 559.3Q218.9 559.2 218.4 559.2L218.4 559.2Q216.5 559.2 215.9 560.5L215.9 560.5L215.9 568.8L212.5 568.8L212.5 556.1L215.7 556.1L215.8 557.6Q216.8 555.9 218.6 555.9L218.6 555.9Q219.2 555.9 219.7 556.0L219.7 556.0ZM220.5 562.5L220.5 562.4Q220.5 559.4 221.9 557.7Q223.3 555.9 225.7 555.9L225.7 555.9Q227.7 555.9 228.9 557.3L228.9 557.3L229.0 556.1L232.1 556.1L232.1 568.4Q232.1 570.0 231.4 571.3Q230.6 572.5 229.2 573.1Q227.9 573.8 226.0 573.8L226.0 573.8Q224.6 573.8 223.3 573.2Q222.0 572.7 221.3 571.8L221.3 571.8L222.8 569.7Q224.1 571.1 225.9 571.1L225.9 571.1Q227.2 571.1 228.0 570.4Q228.7 569.7 228.7 568.4L228.7 568.4L228.7 567.7Q227.5 569.0 225.6 569.0L225.6 569.0Q223.3 569.0 221.9 567.2Q220.5 565.4 220.5 562.5L220.5 562.5ZM223.9 562.6L223.9 562.6Q223.9 564.3 224.6 565.3Q225.3 566.3 226.5 566.3L226.5 566.3Q228.0 566.3 228.7 565.1L228.7 565.1L228.7 559.8Q228.0 558.6 226.5 558.6L226.5 558.6Q225.3 558.6 224.6 559.6Q223.9 560.6 223.9 562.6Z "></path></svg>
